# xmcd
#
# Track frame offsets:
#	150
#	13225
#	26325
#	40025
#	51050
#	65000
#	77675
#	91000
#	103975
#	117475
#	132500
#	145700
#	160275
#	172450
#	184925
#	198775
#	212875
#	243975
#
# Disc length: 3405
#
# Revision: 2
# Processed by: cddbd v1.5.1PL0 Copyright (c) Steve Scherf et al.
# Submitted via: audiograbber 1.80.04
# Normalized: r1:DSETVAR1
#
DISCID=020d4b12
DTITLE=Various Artist - Feelin' The Blues - Diggin' The Rhythm 2
DYEAR=1992
DGENRE=Blues
TTITLE0=Muddy Waters - Hootchie Coochie Man
TTITLE1=Howlin' Wolf - Killing Floor
TTITLE2=Little Walter - Teenage Beat
TTITLE3=Sonny Boy Williamson - Fattening Frogs For Snakes
TTITLE4=John Lee Hooker - One Bourbon, One Scotch, One Beer
TTITLE5=Little Milton - Poor Man's Song
TTITLE6=Buddy Guy - Let Me Love You Baby
TTITLE7=Jimmy McCracklin - The Walk
TTITLE8=Albert King - Won't Be Hanging Around
TTITLE9=J.B. Lenoir - I've Been Down So Long
TTITLE10=Jimmie Rogers - She Loves Another Man
TTITLE11=Lowell Fulson - Reconsider Baby
TTITLE12=Memphis Slim - Reverend Bounce
TTITLE13=Elmore James - The Sun Is Shining
TTITLE14=Muddy Waters - Young Fashioned Ways
TTITLE15=Little Walter - You Better Watch Yourself
TTITLE16=John Lee Hooker - Let's Go Out Tonight
TTITLE17=Sonny Boy Williamson - Don't Start Me Talking
EXTD=
EXTT0=
EXTT1=
EXTT2=
EXTT3=
EXTT4=
EXTT5=
EXTT6=
EXTT7=
EXTT8=
EXTT9=
EXTT10=
EXTT11=
EXTT12=
EXTT13=
EXTT14=
EXTT15=
EXTT16=
EXTT17=
PLAYORDER=
